<svg xmlns="http://www.w3.org/2000/svg" viewBox="0 0 32 32" fill="none">
  <!-- Background -->
  <rect width="32" height="32" fill="#5E6AD8" rx="6"/>

  <!-- MessageCircle (simplified chat bubble) -->
  <path d="M8 10c0-1.1.9-2 2-2h6c1.1 0 2 .9 2 2v4c0 1.1-.9 2-2 2h-1l-2 2-2-2h-1c-1.1 0-2-.9-2-2v-4z" fill="white" opacity="0.9"/>

  <!-- FlaskConical (simplified beaker) -->
  <path d="M19 8h2v5l2.5 5c.3.6 0 1-1 1h-5c-1 0-1.3-.4-1-1L19 13V8z" fill="white" opacity="0.9"/>
  <circle cx="20" cy="9" r="0.5" fill="white"/>
  <circle cx="20" cy="16" r="0.5" fill="white" opacity="0.6"/>
</svg>
